# xmcd CD database file
#
# Track frame offsets:
#	150
#	21877
#	31975
#	52845
#	64260
#	73310
#	83190
#	94017
#	109680
#	121440
#	138282
#	153285
#	177892
#
# Disc length: 2573 seconds
#
# Revision: 3
# Processed by: cddbd v1.5.2PL0 Copyright (c) Steve Scherf et al.
# Submitted via: CDex 1.60beta1
#
DISCID=a90a0b0d
DTITLE=Freakwater - Dancing Underwater
DYEAR=1991
DGENRE=Country
TTITLE0=A Song You Could Cry For
TTITLE1=Great Potential
TTITLE2=Rank Strangers
TTITLE3=Blood and Fire
TTITLE4=Selfishness In Man
TTITLE5=Fill My Thermos
TTITLE6=You're Still on My Mind
TTITLE7=Your Godamn Mouth
TTITLE8=Little Girl and the Dreadful Snake
TTITLE9=Scratches on the Door
TTITLE10=Wild and Blue
TTITLE11=Annabelle Lee
TTITLE12=Dark as a Dungeon
EXTD=YEAR: 1991
EXTT0=
EXTT1=
EXTT2=
EXTT3=
EXTT4=
EXTT5=
EXTT6=
EXTT7=
EXTT8=
EXTT9=
EXTT10=
EXTT11=
EXTT12=
PLAYORDER=
